<svg xmlns="http://www.w3.org/2000/svg" width="360" height="92" viewBox="0 0 360 92" role="img" aria-label="GitHub Trending — LLM topic, #17 on Sep 9, #19 on Sep 10">
  <rect x="0.75" y="0.75" width="358.5" height="90.5" rx="15" fill="#F8F5FC" stroke="#DDD1EB" stroke-width="1.5"/>
  <rect x="73" y="8" width="214" height="76" rx="12" fill="#FFFFFF"/>

  <circle cx="35" cy="46" r="27" fill="#EEE6F7"/>
  <circle cx="325" cy="46" r="27" fill="#EEE6F7"/>

  <g fill="none" stroke="#68419A" stroke-linecap="round" stroke-width="1.7">
    <path d="M48 73C29 61 22 41 29 20"/>
  </g>
  <g fill="#68419A">
    <ellipse cx="41" cy="68" rx="2.8" ry="6" transform="rotate(-54 41 68)"/>
    <ellipse cx="32" cy="61" rx="2.8" ry="6" transform="rotate(-48 32 61)"/>
    <ellipse cx="26" cy="51" rx="2.8" ry="6" transform="rotate(-32 26 51)"/>
    <ellipse cx="23" cy="40" rx="2.8" ry="6" transform="rotate(-12 23 40)"/>
    <ellipse cx="24" cy="29" rx="2.8" ry="6" transform="rotate(15 24 29)"/>
  </g>
  <g transform="translate(360 0) scale(-1 1)">
    <path d="M48 73C29 61 22 41 29 20" fill="none" stroke="#68419A" stroke-linecap="round" stroke-width="1.7"/>
    <g fill="#68419A">
      <ellipse cx="41" cy="68" rx="2.8" ry="6" transform="rotate(-54 41 68)"/>
      <ellipse cx="32" cy="61" rx="2.8" ry="6" transform="rotate(-48 32 61)"/>
      <ellipse cx="26" cy="51" rx="2.8" ry="6" transform="rotate(-32 26 51)"/>
      <ellipse cx="23" cy="40" rx="2.8" ry="6" transform="rotate(-12 23 40)"/>
      <ellipse cx="24" cy="29" rx="2.8" ry="6" transform="rotate(15 24 29)"/>
    </g>
  </g>

  <text x="180" y="26" text-anchor="middle" font-family="Arial,Helvetica,sans-serif" font-size="9" font-weight="700" letter-spacing="1.7" fill="#7049A6">GITHUB TRENDING</text>
  <text x="180" y="56" text-anchor="middle" font-family="Arial,Helvetica,sans-serif" font-size="23" font-weight="700" fill="#321B4C">#17 → #19</text>
  <rect x="137" y="65" width="86" height="17" rx="8.5" fill="#F1EAF8"/>
  <text x="180" y="77" text-anchor="middle" font-family="Arial,Helvetica,sans-serif" font-size="9" font-weight="700" letter-spacing="0.6" fill="#68419A">LLM TOPIC</text>
</svg>
